<svg id="Layer_1" data-name="Layer 1" xmlns="http://www.w3.org/2000/svg" viewBox="0 0 512.2 499.3"><defs><style>.cls-1{fill:#53c2b9;fill-rule:evenodd;}</style></defs><path class="cls-1" d="M102.1,182.1v298a11.47,11.47,0,0,1-2,6.7q-2.1,2.85-7.5,4.8a104.88,104.88,0,0,1-14.3,2.9A169.92,169.92,0,0,1,56,495.6a195.68,195.68,0,0,1-22.3-1.1,89.32,89.32,0,0,1-14.2-2.9c-3.5-1.3-6-2.9-7.4-4.8a11.47,11.47,0,0,1-2-6.7V55.1c0-12.6,3.3-22.1,9.9-28.8s15.5-9.9,26.7-9.9H78.4c11.3,0,21.1.9,29.2,2.8a57.13,57.13,0,0,1,21.1,9.2,52.08,52.08,0,0,1,14.7,17,123.45,123.45,0,0,1,10.3,26L256.5,355.5H258L364.3,72a155.22,155.22,0,0,1,10.4-26.2A64.36,64.36,0,0,1,388,28.6a45.23,45.23,0,0,1,17.9-9.4,91.44,91.44,0,0,1,24-2.8h33.7A50.84,50.84,0,0,1,480.7,19a27.57,27.57,0,0,1,11.8,7.5,32.14,32.14,0,0,1,7,12.1A52.66,52.66,0,0,1,502,55.2v425a11.47,11.47,0,0,1-2,6.7c-1.4,1.9-3.9,3.5-7.4,4.8a89.32,89.32,0,0,1-14.2,2.9,176.32,176.32,0,0,1-22.5,1.1,194.41,194.41,0,0,1-22.3-1.1,87.74,87.74,0,0,1-14.1-2.9c-3.4-1.3-5.9-2.9-7.3-4.8a11.09,11.09,0,0,1-2.3-6.7V179L303.2,479.7a17.77,17.77,0,0,1-4.8,7.9,23.23,23.23,0,0,1-9.1,5,70.34,70.34,0,0,1-14.5,2.4c-5.9.4-13.1.5-21.4.5s-15.5-.3-21.4-.9a61.06,61.06,0,0,1-14.6-3,31,31,0,0,1-9.1-4.9,16.31,16.31,0,0,1-4.4-7Z" transform="translate(0 -6.4)"/><path d="M509.1,35.4a42.21,42.21,0,0,0-9.2-15.6A38.31,38.31,0,0,0,484.1,9.6a62.12,62.12,0,0,0-20.5-3.2H429.9a105.87,105.87,0,0,0-26.7,3.1A55.7,55.7,0,0,0,381.4,21a73.15,73.15,0,0,0-15.5,19.9c0,.1-.1.1-.1.2a163.31,163.31,0,0,0-11.1,27.6L257.2,328.5l-39-107.8a10,10,0,0,0-18.8,6.8L247,358.9a9.92,9.92,0,0,0,9.4,6.6h1.5a10.07,10.07,0,0,0,9.4-6.5L373.6,75.5c.1-.2.1-.4.2-.6a136.51,136.51,0,0,1,9.7-24.3,54.17,54.17,0,0,1,11.1-14.5,34.3,34.3,0,0,1,13.9-7.3,83.08,83.08,0,0,1,21.4-2.4h33.7a40.87,40.87,0,0,1,13.8,2.1,18.17,18.17,0,0,1,7.7,4.8l.3.3a21.85,21.85,0,0,1,4.8,8.4,41.88,41.88,0,0,1,1.9,13.2v425c0,.3,0,.6-.1.7a11.89,11.89,0,0,1-2.5,1.3,71.88,71.88,0,0,1-12.3,2.4,172.86,172.86,0,0,1-21.2,1.1,170.45,170.45,0,0,1-21-1.1,80.5,80.5,0,0,1-12.1-2.4,9.12,9.12,0,0,1-2.6-1.4,1,1,0,0,1-.2-.6V179a10.08,10.08,0,0,0-8.3-9.9,10,10,0,0,0-11.1,6.5l-107,300.8c0,.1-.1.2-.1.3a7.6,7.6,0,0,1-2.1,3.7c-.7.7-2.1,1.7-5.2,2.8a55.51,55.51,0,0,1-12.1,2c-5.2.3-11.7.5-20.7.5-8.6,0-15-.3-20.3-.8-6.4-.7-10.2-1.7-12.2-2.5a20.38,20.38,0,0,1-5.9-3,5.12,5.12,0,0,1-1.4-2.3c0-.2-.1-.3-.2-.5L111.5,179A10,10,0,0,0,92,182.3v298c0,.3,0,.6-.1.7a9.25,9.25,0,0,1-2.5,1.2,80,80,0,0,1-12.6,2.5,169.92,169.92,0,0,1-21,1,170.45,170.45,0,0,1-21-1.1,86.83,86.83,0,0,1-12.3-2.4,6.45,6.45,0,0,1-2.5-1.3,1.48,1.48,0,0,1-.1-.7V55.2c0-9.9,2.3-17,7-21.7s11-7,19.6-7H78.2c10.8,0,19.8.8,26.9,2.5a48.28,48.28,0,0,1,17.5,7.5,42.11,42.11,0,0,1,11.9,13.8,111.29,111.29,0,0,1,9.4,23.9c.1.2.1.5.2.7l24.7,68.2a10,10,0,1,0,18.8-6.8L163,68.4a129.9,129.9,0,0,0-11.1-27.8,63.39,63.39,0,0,0-17.5-20.2.1.1,0,0,1-.1-.1A67.75,67.75,0,0,0,109.6,9.5c-8.6-2-19.2-3-31.5-3H46.6c-13.8,0-25.2,4.3-33.7,12.9C4.3,27.8,0,39.9,0,55.2v425a21.31,21.31,0,0,0,3.8,12.3c.1.1.1.2.2.2,2.6,3.6,6.7,6.3,12.1,8.3.1,0,.2.1.3.1a89.26,89.26,0,0,0,16,3.3,192.34,192.34,0,0,0,23.5,1.2,190.71,190.71,0,0,0,23.6-1.2,111.24,111.24,0,0,0,15.9-3.2c.1,0,.3-.1.4-.1,5.6-1.9,9.7-4.7,12.4-8.3.1-.1.1-.2.2-.2a21.54,21.54,0,0,0,3.8-12.3v-238l82.5,240.6a26.13,26.13,0,0,0,7.1,11.3,2.18,2.18,0,0,0,.5.4,39.06,39.06,0,0,0,12,6.6,68.93,68.93,0,0,0,17,3.6c6,.6,13.1.9,22.4.9s16.4-.2,22-.5a78.49,78.49,0,0,0,16.7-2.8c.1,0,.1,0,.2-.1a31.9,31.9,0,0,0,12.8-7.3,27.76,27.76,0,0,0,7.4-12l87.3-245.9V480.2a21.42,21.42,0,0,0,4.2,12.6c2.6,3.5,6.6,6.2,11.9,8.2a.6.6,0,0,0,.4.1,89.89,89.89,0,0,0,15.9,3.3,192.34,192.34,0,0,0,23.5,1.2,195.39,195.39,0,0,0,23.8-1.2,89.26,89.26,0,0,0,16-3.3c.1,0,.2-.1.3-.1,5.4-1.9,9.5-4.7,12.1-8.3.1-.1.1-.2.2-.3a21.54,21.54,0,0,0,3.8-12.3V55.1a68.38,68.38,0,0,0-3.1-19.7Z" transform="translate(0 -6.4)"/><path d="M183.6,181.9a10,10,0,1,0,10-10h0A10,10,0,0,0,183.6,181.9Z" transform="translate(0 -6.4)"/></svg>